<!--?xml version="1.0" encoding="utf-8"?-->
<!-- Svg Vector Icons : http://www.onlinewebfonts.com/icon -->

<svg version="1.1" xmlns="http://www.w3.org/2000/svg" xmlns:xlink="http://www.w3.org/1999/xlink" x="0px" y="0px" viewBox="0 0 256 256" enable-background="new 0 0 256 256" xml:space="preserve">
<metadata> Svg Vector Icons : http://www.onlinewebfonts.com/icon </metadata>
<g><g><g><path fill="#da473f" data-title="Layer 0" xs="0" d="M16,10.9c-1.6,1.3-2,2.6-3.4,13.5c-1.9,14-2.4,22.7-2.1,36.7c0.2,13.8,1.2,21,3.5,28.3c0.6,2,1.1,3.8,0.9,4c-0.5,0.8-3.1,12.1-4,17.1c-1.3,7.6-1.3,27.6,0,35.2c6.5,39.2,29.9,71.1,64.9,88.4c17.6,8.7,35.6,12.6,55.9,12c17.9-0.5,32.7-4.2,48.4-12c34.9-17.3,58.8-49.9,64.8-88.4c1.1-6.7,1.4-21.8,0.7-29c-0.6-6.3-2.5-15.9-4-21.3l-1-3.5l1.3-5.3c4.1-16.8,4.1-42.1-0.2-68.5c-0.8-5-1.1-5.7-2.4-6.9c-2.3-2.1-4.2-1.8-9.1,1.3c-8.7,5.4-27,15.1-33.2,17.5l-2,0.8l-2.8-1.9c-9.5-6.4-23.3-12.4-35.8-15.5c-10.7-2.7-15-3.1-28.4-3.1c-13.4,0-17.8,0.5-28.4,3.1c-12.6,3.1-26.1,9-36.1,15.7l-3.1,2l-3.4-1.5c-8.8-3.9-25.8-12.9-33.3-17.7C20.3,9.6,17.9,9.3,16,10.9z M145.1,21.5c6.8,1.2,16.3,3.7,21.7,5.8c32.5,12.8,56.8,40.1,65.5,73.3c2.7,10.2,3.4,16.2,3.4,27.5c0,11.3-0.7,17.3-3.4,27.5c-9.8,37.4-39.4,67.1-76.9,76.9c-10.2,2.7-16.2,3.4-27.5,3.4c-11.3,0-17.3-0.7-27.4-3.4c-18.8-4.9-34.9-14.2-48.8-28.1C35,187.5,25,167.6,21.1,143.7c-1.2-7.4-1.2-24,0-31.3C25,88.3,35,68.6,51.7,51.8C70,33.6,93.2,22.7,119.3,20.3C124.5,19.9,139.4,20.5,145.1,21.5z M29.8,27.4c2.1,1.2,7.7,4.1,12.3,6.4c4.6,2.3,8.5,4.3,8.6,4.3c0.1,0.1-2.1,2.3-4.8,4.9c-8.8,8.6-16.4,18.5-21.7,28.4l-2.6,4.8l-0.5-2.2c-0.2-1.2-0.4-8.8-0.5-16.9c0-13.9,0.3-19.2,1.7-29.7l0.5-4l1.5,0.9C25.3,24.8,27.7,26.2,29.8,27.4z M233.3,32.3c1.4,11.3,1.5,42.2,0.3,42.2c-0.2,0-1.1-1.4-2-3.3c-4.5-8.8-13.2-20.1-21.8-28.4l-5.1-4.9l8.7-4.4c4.8-2.4,10.9-5.6,13.6-7.2C232.7,23.1,232.2,22.6,233.3,32.3z"/><path fill="#da473f" data-title="Layer 1" xs="1" d="M64.9,87.5c-2.9,1.8-3,6.4-0.1,8.4l1.1,0.8l-2.3,3c-4.1,5.5-5.5,9.6-5.5,16.1c0,7.3,2.3,12.7,7.4,17.9c4,4,7.9,6.1,13.3,7.2c12.2,2.6,25.3-5.1,29.2-17l0.8-2.5l1.7,0.7c3.3,1.4,6.9-1,6.9-4.6c0-3.3,1.3-2.4-25.6-17.9c-7-4.1-13.7-7.9-14.9-8.6c-1.2-0.7-3.3-1.8-4.6-2.7C69.1,86.5,66.9,86.3,64.9,87.5z M88.1,109.4l11,6.4l-0.3,2.2c-0.6,4.7-3.9,9.2-8.6,11.7c-1.7,0.9-2.8,1.1-6.7,1.1c-4.1,0-4.9-0.1-7-1.3c-2.9-1.5-5.7-4.5-7.1-7.6c-1.5-3.2-1.4-9,0.1-12.4c1.4-3,5.5-7.1,6.7-6.7C76.7,102.9,82.1,105.9,88.1,109.4z"/><path fill="#da473f" data-title="Layer 2" xs="2" d="M181.7,89.4c-6.7,3.9-32.9,19-37.5,21.6c-4.4,2.6-5.6,3.9-5.6,6.4c0,3.6,3.6,6,6.9,4.6l1.7-0.7l0.8,2.5c3.9,11.9,17,19.6,29.2,17c12.2-2.6,20.7-12.8,20.7-25.1c0-6.6-2.1-12.2-6-16.6l-2.2-2.4l1.3-0.8c3-2,3-6.7,0-8.4C188.6,86.1,187,86.4,181.7,89.4z M182.7,104.5c1.2,1.1,2.7,3.2,3.5,4.7c1.2,2.3,1.4,3.3,1.4,6.6c0,3.2-0.2,4.3-1.4,6.6c-1.4,3-4,5.5-7.2,7.2c-1.7,0.9-2.8,1.1-6.7,1.1c-4.1,0-4.9-0.1-7-1.3c-4.3-2.3-7.6-6.8-8.2-11.6l-0.3-2.1l11.5-6.6c6.4-3.6,11.7-6.6,11.9-6.6C180.4,102.5,181.5,103.4,182.7,104.5z"/><path fill="#da473f" data-title="Layer 3" xs="3" d="M58,160.2c-2.3,2.1-2.4,4.2-0.3,8c15,26.8,46,43.1,76.7,40.5c27-2.3,51-17.6,63.8-40.5c2-3.6,2-5.7-0.1-7.8l-1.2-1.3l-68.7-0.1l-68.7-0.1L58,160.2z M183.8,171.3c-2.5,3.5-9.1,9.9-13.7,13.4c-7.7,5.8-18.2,10.5-28.3,12.7c-5.8,1.3-22,1.3-27.9,0c-9.6-2.1-19.4-6.4-27.3-12c-4.5-3.2-12-10.4-14.6-14l-1.6-2.3H128h57.4L183.8,171.3z"/></g></g></g>
</svg>